<?xml version="1.0" encoding="UTF-8" standalone="no"?>
<!-- Created with Inkscape (http://www.inkscape.org/) -->

<svg
   xmlns:dc="http://purl.org/dc/elements/1.1/"
   xmlns:cc="http://creativecommons.org/ns#"
   xmlns:rdf="http://www.w3.org/1999/02/22-rdf-syntax-ns#"
   xmlns:svg="http://www.w3.org/2000/svg"
   xmlns="http://www.w3.org/2000/svg"
   xmlns:sodipodi="http://sodipodi.sourceforge.net/DTD/sodipodi-0.dtd"
   xmlns:inkscape="http://www.inkscape.org/namespaces/inkscape"
   width="1920px"
   height="1080px"
   id="svg2985"
   version="1.1"
   inkscape:version="0.48.4 r9939"
   sodipodi:docname="Neues Dokument 2">
  <defs
     id="defs2987" />
  <sodipodi:namedview
     id="base"
     pagecolor="#2980b9"
     bordercolor="#666666"
     borderopacity="1.0"
     inkscape:pageopacity="1"
     inkscape:pageshadow="2"
     inkscape:zoom="0.6"
     inkscape:cx="930.88788"
     inkscape:cy="662.30652"
     inkscape:document-units="px"
     inkscape:current-layer="layer1"
     showgrid="false"
     borderlayer="false"
     inkscape:window-width="1920"
     inkscape:window-height="1017"
     inkscape:window-x="-8"
     inkscape:window-y="-8"
     inkscape:window-maximized="1" />
  <metadata
     id="metadata2990">
    <rdf:RDF>
      <cc:Work
         rdf:about="">
        <dc:format>image/svg+xml</dc:format>
        <dc:type
           rdf:resource="http://purl.org/dc/dcmitype/StillImage" />
        <dc:title></dc:title>
      </cc:Work>
    </rdf:RDF>
  </metadata>
  <g
     id="layer1"
     inkscape:label="Layer 1"
     inkscape:groupmode="layer">
    <path
       sodipodi:type="arc"
       style="fill:#3498db;fill-opacity:1;stroke:#000000;stroke-width:0;stroke-miterlimit:4;stroke-opacity:1;stroke-dasharray:none"
       id="path3767"
       sodipodi:cx="426.66666"
       sodipodi:cy="305"
       sodipodi:rx="125"
       sodipodi:ry="146.66667"
       d="m 551.66666,305 a 125,146.66667 0 1 1 -250,0 125,146.66667 0 1 1 250,0 z"
       transform="matrix(1.32,0,0,1.1704545,-343.19999,-83.6553)" />
    <path
       sodipodi:type="arc"
       style="fill:#3498db;fill-opacity:1;stroke:#000000;stroke-width:0;stroke-miterlimit:4;stroke-opacity:1;stroke-dasharray:none"
       id="path3769"
       sodipodi:cx="753.33331"
       sodipodi:cy="583.33331"
       sodipodi:rx="190"
       sodipodi:ry="161.66667"
       d="m 943.33331,583.33331 a 190,161.66667 0 1 1 -380,0 190,161.66667 0 1 1 380,0 z"
       transform="translate(-326.66666,-243.33334)" />
    <path
       sodipodi:type="arc"
       style="fill:#3498db;fill-opacity:1;stroke:#000000;stroke-width:0;stroke-miterlimit:4;stroke-opacity:1;stroke-dasharray:none"
       id="path3773"
       sodipodi:cx="336.66666"
       sodipodi:cy="493.33334"
       sodipodi:rx="183.33333"
       sodipodi:ry="135"
       d="m 519.99998,493.33334 a 183.33333,135 0 1 1 -366.66665,0 183.33333,135 0 1 1 366.66665,0 z"
       transform="translate(-246.66666,-56.66667)" />
    <path
       sodipodi:type="arc"
       style="fill:#3498db;fill-opacity:1;stroke:#000000;stroke-width:0;stroke-miterlimit:4;stroke-opacity:1;stroke-dasharray:none"
       id="path3775"
       sodipodi:cx="553.33331"
       sodipodi:cy="598.33331"
       sodipodi:rx="216.66667"
       sodipodi:ry="156.66667"
       d="m 769.99998,598.33331 a 216.66667,156.66667 0 1 1 -433.33334,0 216.66667,156.66667 0 1 1 433.33334,0 z"
       transform="translate(-246.66666,-56.66667)" />
    <path
       sodipodi:type="arc"
       style="fill:#3498db;fill-opacity:1;stroke:#000000;stroke-width:0;stroke-miterlimit:4;stroke-opacity:1;stroke-dasharray:none"
       id="path3777"
       sodipodi:cx="926.66669"
       sodipodi:cy="586.66669"
       sodipodi:rx="280"
       sodipodi:ry="168.33333"
       d="m 1206.6667,586.66669 a 280,168.33333 0 1 1 -560.00001,0 280,168.33333 0 1 1 560.00001,0 z"
       transform="translate(-293.33333,-53.333337)" />
    <path
       sodipodi:type="arc"
       style="fill:#3498db;fill-opacity:1;stroke:#000000;stroke-width:0;stroke-miterlimit:4;stroke-opacity:1;stroke-dasharray:none"
       id="path3779"
       sodipodi:cx="988.33331"
       sodipodi:cy="400"
       sodipodi:rx="198.33333"
       sodipodi:ry="151.66667"
       d="m 1186.6666,400 a 198.33333,151.66667 0 1 1 -396.66662,0 198.33333,151.66667 0 1 1 396.66662,0 z"
       transform="translate(-246.66666,-56.66667)" />
    <path
       sodipodi:type="arc"
       style="fill:#3498db;fill-opacity:1;stroke:#000000;stroke-width:0;stroke-miterlimit:4;stroke-opacity:1;stroke-dasharray:none"
       id="path3781"
       sodipodi:cx="1216.6666"
       sodipodi:cy="473.33334"
       sodipodi:rx="153.33333"
       sodipodi:ry="138.33333"
       d="m 1370,473.33334 a 153.33333,138.33333 0 1 1 -306.6667,0 153.33333,138.33333 0 1 1 306.6667,0 z"
       transform="translate(-246.66666,-56.66667)" />
    <path
       sodipodi:type="arc"
       style="fill:#3498db;fill-opacity:1;stroke:#000000;stroke-width:0;stroke-miterlimit:4;stroke-opacity:1;stroke-dasharray:none"
       id="path3783"
       sodipodi:cx="1401.6666"
       sodipodi:cy="715"
       sodipodi:rx="158.33333"
       sodipodi:ry="153.33333"
       d="M 1560,715 A 158.33333,153.33333 0 1 1 1243.3333,715 158.33333,153.33333 0 1 1 1560,715 z" />
    <path
       sodipodi:type="arc"
       style="fill:#3498db;fill-opacity:1;stroke:#000000;stroke-width:0;stroke-miterlimit:4;stroke-opacity:1;stroke-dasharray:none"
       id="path3785"
       sodipodi:cx="1563.3334"
       sodipodi:cy="643.33331"
       sodipodi:rx="143.33333"
       sodipodi:ry="131.66667"
       d="m 1706.6667,643.33331 a 143.33333,131.66667 0 1 1 -286.6667,0 143.33333,131.66667 0 1 1 286.6667,0 z" />
    <path
       sodipodi:type="arc"
       style="fill:#3498db;fill-opacity:1;stroke:#000000;stroke-width:0;stroke-miterlimit:4;stroke-opacity:1;stroke-dasharray:none"
       id="path3787"
       sodipodi:cx="1625"
       sodipodi:cy="823.33331"
       sodipodi:rx="161.66667"
       sodipodi:ry="121.66666"
       d="m 1786.6667,823.33331 a 161.66667,121.66666 0 1 1 -323.3334,0 161.66667,121.66666 0 1 1 323.3334,0 z" />
    <path
       sodipodi:type="arc"
       style="fill:#3498db;fill-opacity:1;stroke:#000000;stroke-width:0;stroke-miterlimit:4;stroke-opacity:1;stroke-dasharray:none"
       id="path3789"
       sodipodi:cx="1760"
       sodipodi:cy="586.66669"
       sodipodi:rx="156.66667"
       sodipodi:ry="151.66667"
       d="m 1916.6667,586.66669 a 156.66667,151.66667 0 1 1 -313.3334,0 156.66667,151.66667 0 1 1 313.3334,0 z" />
    <path
       sodipodi:type="arc"
       style="fill:#3498db;fill-opacity:1;stroke:#000000;stroke-width:0;stroke-miterlimit:4;stroke-opacity:1;stroke-dasharray:none"
       id="path3791"
       sodipodi:cx="1806.6666"
       sodipodi:cy="128.33333"
       sodipodi:rx="120"
       sodipodi:ry="136.66667"
       d="m 1926.6666,128.33333 a 120,136.66667 0 1 1 -240,0 120,136.66667 0 1 1 240,0 z" />
    <path
       sodipodi:type="arc"
       style="fill:#3498db;fill-opacity:1;stroke:#000000;stroke-width:0;stroke-miterlimit:4;stroke-opacity:1;stroke-dasharray:none"
       id="path3793"
       sodipodi:cx="1956.6666"
       sodipodi:cy="4.9999995"
       sodipodi:rx="123.33334"
       sodipodi:ry="103.33334"
       d="m 2080,4.9999995 a 123.33334,103.33334 0 1 1 -246.6667,0 123.33334,103.33334 0 1 1 246.6667,0 z" />
    <path
       sodipodi:type="arc"
       style="fill:#3498db;fill-opacity:1;stroke:#000000;stroke-width:0;stroke-miterlimit:4;stroke-opacity:1;stroke-dasharray:none"
       id="path3795"
       sodipodi:cx="1691.6666"
       sodipodi:cy="-21.666668"
       sodipodi:rx="135"
       sodipodi:ry="120"
       d="m 1826.6666,-21.666668 a 135,120 0 1 1 -270,0 135,120 0 1 1 270,0 z" />
    <path
       sodipodi:type="arc"
       style="fill:#3498db;fill-opacity:1;stroke:#000000;stroke-width:0;stroke-miterlimit:4;stroke-opacity:1;stroke-dasharray:none"
       id="path3797"
       sodipodi:cx="1916.6666"
       sodipodi:cy="111.66666"
       sodipodi:rx="170"
       sodipodi:ry="150"
       d="m 2086.6666,111.66666 a 170,150 0 1 1 -340,0 170,150 0 1 1 340,0 z" />
    <path
       sodipodi:type="arc"
       style="fill:#3498db;fill-opacity:1;stroke:#000000;stroke-width:0;stroke-miterlimit:4;stroke-opacity:1;stroke-dasharray:none"
       id="path3799"
       sodipodi:cx="1148.3334"
       sodipodi:cy="14.999999"
       sodipodi:rx="115"
       sodipodi:ry="70"
       d="m 1263.3334,14.999999 a 115,70 0 1 1 -230,0 115,70 0 1 1 230,0 z" />
    <path
       sodipodi:type="arc"
       style="fill:#3498db;fill-opacity:1;stroke:#000000;stroke-width:0;stroke-miterlimit:4;stroke-opacity:1;stroke-dasharray:none"
       id="path3801"
       sodipodi:cx="1220"
       sodipodi:cy="-60"
       sodipodi:rx="100"
       sodipodi:ry="58.333332"
       d="m 1320,-60 a 100,58.333332 0 1 1 -200,0 100,58.333332 0 1 1 200,0 z" />
    <path
       sodipodi:type="arc"
       style="fill:#3498db;fill-opacity:1;stroke:#000000;stroke-width:0;stroke-miterlimit:4;stroke-opacity:1;stroke-dasharray:none"
       id="path3803"
       sodipodi:cx="1243.3334"
       sodipodi:cy="-36.666668"
       sodipodi:rx="113.33334"
       sodipodi:ry="68.333336"
       d="m 1356.6667,-36.666668 a 113.33334,68.333336 0 1 1 -226.6667,0 113.33334,68.333336 0 1 1 226.6667,0 z" />
    <path
       sodipodi:type="arc"
       style="fill:#3498db;fill-opacity:1;stroke:#000000;stroke-width:0;stroke-miterlimit:4;stroke-opacity:1;stroke-dasharray:none"
       id="path3805"
       sodipodi:cx="1026.6666"
       sodipodi:cy="-21.666668"
       sodipodi:rx="103.33334"
       sodipodi:ry="70"
       d="m 1130,-21.666668 a 103.33334,70 0 1 1 -206.66672,0 103.33334,70 0 1 1 206.66672,0 z" />
    <path
       sodipodi:type="arc"
       style="fill:#3498db;fill-opacity:1;stroke:#000000;stroke-width:0;stroke-miterlimit:4;stroke-opacity:1;stroke-dasharray:none"
       id="path3809"
       sodipodi:cx="1815"
       sodipodi:cy="795"
       sodipodi:rx="198.33333"
       sodipodi:ry="126.66666"
       d="m 2013.3333,795 a 198.33333,126.66666 0 1 1 -396.6666,0 198.33333,126.66666 0 1 1 396.6666,0 z" />
    <path
       sodipodi:type="arc"
       style="fill:#3498db;fill-opacity:1;stroke:#000000;stroke-width:0;stroke-miterlimit:4;stroke-opacity:1;stroke-dasharray:none"
       id="path3811"
       sodipodi:cx="1960"
       sodipodi:cy="715"
       sodipodi:rx="116.66666"
       sodipodi:ry="120"
       d="m 2076.6667,715 a 116.66666,120 0 1 1 -233.3334,0 116.66666,120 0 1 1 233.3334,0 z" />
    <path
       sodipodi:type="arc"
       style="fill:#3498db;fill-opacity:1;stroke:#000000;stroke-width:0;stroke-miterlimit:4;stroke-opacity:1;stroke-dasharray:none"
       id="path3813"
       sodipodi:cx="1958.3334"
       sodipodi:cy="643.33331"
       sodipodi:rx="121.66666"
       sodipodi:ry="111.66666"
       d="m 2080,643.33331 a 121.66666,111.66666 0 1 1 -243.3333,0 121.66666,111.66666 0 1 1 243.3333,0 z" />
    <path
       sodipodi:type="arc"
       style="fill:#3498db;fill-opacity:1;stroke:#000000;stroke-width:0;stroke-miterlimit:4;stroke-opacity:1;stroke-dasharray:none"
       id="path3815"
       sodipodi:cx="2026.6666"
       sodipodi:cy="913.33331"
       sodipodi:rx="100"
       sodipodi:ry="105"
       d="m 2126.6666,913.33331 a 100,105 0 1 1 -200,0 100,105 0 1 1 200,0 z" />
    <path
       sodipodi:type="arc"
       style="fill:#3498db;fill-opacity:1;stroke:#000000;stroke-width:0;stroke-miterlimit:4;stroke-opacity:1;stroke-dasharray:none"
       id="path3817"
       sodipodi:cx="1846.6666"
       sodipodi:cy="921.66669"
       sodipodi:rx="146.66667"
       sodipodi:ry="96.666664"
       d="m 1993.3333,921.66669 a 146.66667,96.666664 0 1 1 -293.3333,0 146.66667,96.666664 0 1 1 293.3333,0 z" />
    <path
       sodipodi:type="arc"
       style="fill:#3498db;fill-opacity:1;stroke:#000000;stroke-width:0;stroke-miterlimit:4;stroke-opacity:1;stroke-dasharray:none"
       id="path3819"
       sodipodi:cx="570"
       sodipodi:cy="1056.6666"
       sodipodi:rx="240"
       sodipodi:ry="205"
       d="m 810,1056.6666 a 240,205 0 1 1 -480,0 240,205 0 1 1 480,0 z" />
    <path
       sodipodi:type="arc"
       style="fill:#3498db;fill-opacity:1;stroke:#000000;stroke-width:0;stroke-miterlimit:4;stroke-opacity:1;stroke-dasharray:none"
       id="path3821"
       sodipodi:cx="883.33331"
       sodipodi:cy="1103.3334"
       sodipodi:rx="176.66667"
       sodipodi:ry="171.66667"
       d="m 1060,1103.3334 a 176.66667,171.66667 0 1 1 -353.33336,0 176.66667,171.66667 0 1 1 353.33336,0 z" />
    <path
       sodipodi:type="arc"
       style="fill:#3498db;fill-opacity:1;stroke:#000000;stroke-width:0;stroke-miterlimit:4;stroke-opacity:1;stroke-dasharray:none"
       id="path3823"
       sodipodi:cx="1083.3334"
       sodipodi:cy="1150"
       sodipodi:rx="133.33333"
       sodipodi:ry="135"
       d="m 1216.6667,1150 a 133.33333,135 0 1 1 -266.66665,0 133.33333,135 0 1 1 266.66665,0 z" />
    <path
       sodipodi:type="arc"
       style="fill:#3498db;fill-opacity:1;stroke:#000000;stroke-width:0;stroke-miterlimit:4;stroke-opacity:1;stroke-dasharray:none"
       id="path3825"
       sodipodi:cx="340"
       sodipodi:cy="1116.6666"
       sodipodi:rx="153.33333"
       sodipodi:ry="135"
       d="m 493.33333,1116.6666 a 153.33333,135 0 1 1 -306.66666,0 153.33333,135 0 1 1 306.66666,0 z" />
    <path
       sodipodi:type="arc"
       style="fill:#3498db;fill-opacity:1;stroke:#000000;stroke-width:0;stroke-miterlimit:4;stroke-opacity:1;stroke-dasharray:none"
       id="path3827"
       sodipodi:cx="195"
       sodipodi:cy="1173.3334"
       sodipodi:rx="141.66667"
       sodipodi:ry="105"
       d="m 336.66667,1173.3334 a 141.66667,105 0 1 1 -283.333342,0 141.66667,105 0 1 1 283.333342,0 z" />
    <path
       sodipodi:type="arc"
       style="fill:#3498db;fill-opacity:1;stroke:#000000;stroke-width:0;stroke-miterlimit:4;stroke-opacity:1;stroke-dasharray:none"
       id="path3829"
       sodipodi:cx="340"
       sodipodi:cy="1281.6666"
       sodipodi:rx="143.33333"
       sodipodi:ry="116.66666"
       d="m 483.33333,1281.6666 a 143.33333,116.66666 0 1 1 -286.66666,0 143.33333,116.66666 0 1 1 286.66666,0 z" />
    <path
       sodipodi:type="arc"
       style="fill:#3498db;fill-opacity:1;stroke:#000000;stroke-width:0;stroke-miterlimit:4;stroke-opacity:1;stroke-dasharray:none"
       id="path3831"
       sodipodi:cx="575"
       sodipodi:cy="1261.6666"
       sodipodi:rx="135"
       sodipodi:ry="106.66666"
       d="m 710,1261.6666 a 135,106.66666 0 1 1 -270,0 135,106.66666 0 1 1 270,0 z" />
    <path
       sodipodi:type="arc"
       style="fill:#3498db;fill-opacity:1;stroke:#000000;stroke-width:0;stroke-miterlimit:4;stroke-opacity:1;stroke-dasharray:none"
       id="path3833"
       sodipodi:cx="766.66669"
       sodipodi:cy="1240"
       sodipodi:rx="110"
       sodipodi:ry="111.66666"
       d="m 876.66669,1240 a 110,111.66666 0 1 1 -220,0 110,111.66666 0 1 1 220,0 z" />
    <path
       sodipodi:type="arc"
       style="fill:#3498db;fill-opacity:1;stroke:#000000;stroke-width:0;stroke-miterlimit:4;stroke-opacity:1;stroke-dasharray:none"
       id="path3835"
       sodipodi:cx="956.66669"
       sodipodi:cy="1286.6666"
       sodipodi:rx="146.66667"
       sodipodi:ry="108.33334"
       d="m 1103.3334,1286.6666 a 146.66667,108.33334 0 1 1 -293.33338,0 146.66667,108.33334 0 1 1 293.33338,0 z" />
    <path
       sodipodi:type="arc"
       style="fill:#3498db;fill-opacity:1;stroke:#000000;stroke-width:0;stroke-miterlimit:4;stroke-opacity:1;stroke-dasharray:none"
       id="path3837"
       sodipodi:cx="1090"
       sodipodi:cy="-70"
       sodipodi:rx="113.33334"
       sodipodi:ry="88.333336"
       d="m 1203.3333,-70 a 113.33334,88.333336 0 1 1 -226.66664,0 113.33334,88.333336 0 1 1 226.66664,0 z" />
    <path
       sodipodi:type="arc"
       style="fill:#3498db;fill-opacity:1;stroke:#000000;stroke-width:0;stroke-miterlimit:4;stroke-opacity:1;stroke-dasharray:none"
       id="path3839"
       sodipodi:cx="1245"
       sodipodi:cy="-128.33333"
       sodipodi:rx="108.33334"
       sodipodi:ry="93.333336"
       d="m 1353.3333,-128.33333 a 108.33334,93.333336 0 1 1 -216.6666,0 108.33334,93.333336 0 1 1 216.6666,0 z" />
    <path
       sodipodi:type="arc"
       style="fill:#3498db;fill-opacity:1;stroke:#000000;stroke-width:0;stroke-miterlimit:4;stroke-opacity:1;stroke-dasharray:none"
       id="path3841"
       sodipodi:cx="1321.6666"
       sodipodi:cy="-18.333334"
       sodipodi:rx="135"
       sodipodi:ry="113.33334"
       d="m 1456.6666,-18.333334 a 135,113.33334 0 1 1 -270,0 135,113.33334 0 1 1 270,0 z" />
  </g>
</svg>
