<?xml version="1.0" encoding="UTF-8" standalone="no"?>
<!-- Created with Inkscape (http://www.inkscape.org/) -->

<svg
   xmlns:dc="http://purl.org/dc/elements/1.1/"
   xmlns:cc="http://creativecommons.org/ns#"
   xmlns:rdf="http://www.w3.org/1999/02/22-rdf-syntax-ns#"
   xmlns:svg="http://www.w3.org/2000/svg"
   xmlns="http://www.w3.org/2000/svg"
   xmlns:xlink="http://www.w3.org/1999/xlink"
   xmlns:sodipodi="http://sodipodi.sourceforge.net/DTD/sodipodi-0.dtd"
   xmlns:inkscape="http://www.inkscape.org/namespaces/inkscape"
   width="1920px"
   height="1080px"
   id="svg2985"
   version="1.1"
   inkscape:version="0.48.4 r9939"
   sodipodi:docname="clouds.svg">
  <defs
     id="defs2987">
    <linearGradient
       inkscape:collect="always"
       id="linearGradient3951">
      <stop
         style="stop-color:#006fbf;stop-opacity:1;"
         offset="0"
         id="stop3953" />
      <stop
         style="stop-color:#c0f3ff;stop-opacity:1;"
         offset="1"
         id="stop3955" />
    </linearGradient>
    <linearGradient
       inkscape:collect="always"
       xlink:href="#linearGradient3951"
       id="linearGradient3957"
       x1="-83.333336"
       y1="560.00003"
       x2="2016.6667"
       y2="560.00003"
       gradientUnits="userSpaceOnUse"
       gradientTransform="matrix(0.61031747,0,0,1.5565326,-54.973529,-1824.9918)" />
  </defs>
  <sodipodi:namedview
     id="base"
     pagecolor="#2980b9"
     bordercolor="#666666"
     borderopacity="1.0"
     inkscape:pageopacity="0"
     inkscape:pageshadow="2"
     inkscape:zoom="0.6"
     inkscape:cx="846.09375"
     inkscape:cy="600.90535"
     inkscape:document-units="px"
     inkscape:current-layer="layer1"
     showgrid="false"
     borderlayer="false"
     inkscape:window-width="1920"
     inkscape:window-height="1017"
     inkscape:window-x="1912"
     inkscape:window-y="-8"
     inkscape:window-maximized="1" />
  <metadata
     id="metadata2990">
    <rdf:RDF>
      <cc:Work
         rdf:about="">
        <dc:format>image/svg+xml</dc:format>
        <dc:type
           rdf:resource="http://purl.org/dc/dcmitype/StillImage" />
        <dc:title />
      </cc:Work>
    </rdf:RDF>
  </metadata>
  <g
     id="layer1"
     inkscape:label="Layer 1"
     inkscape:groupmode="layer">
    <rect
       style="fill:url(#linearGradient3957);fill-opacity:1;fill-rule:nonzero;stroke:#000000;stroke-width:0;stroke-miterlimit:4;stroke-opacity:1;stroke-dasharray:none"
       id="rect3181"
       width="1281.6667"
       height="2065.0002"
       x="-105.83331"
       y="-1985.8334"
       transform="matrix(0,1,-1,0,0,0)" />
    <path
       id="path3817"
       style="fill:#ffffff;fill-opacity:1;stroke:#000000;stroke-width:0;stroke-miterlimit:4;stroke-opacity:1"
       d="m 1915.0001,1085.0002 c 0,53.3875 -65.6649,96.6667 -146.6667,96.6667 -81.0017,0 -146.6666,-43.2792 -146.6666,-96.6667 0,-53.3876 65.6649,-96.66683 146.6666,-96.66683 81.0018,0 146.6667,43.27923 146.6667,96.66683 z m 133.3333,-8.3334 c 0,57.9899 -44.7715,105 -100,105 -55.2284,0 -100,-47.0101 -100,-105 0,-57.99 44.7716,-105.00014 100,-105.00014 55.2285,0 100,47.01014 100,105.00014 z m -46.6666,-270.00014 c 0,61.67179 -54.472,111.66666 -121.6666,111.66666 -67.1947,0 -121.6667,-49.99487 -121.6667,-111.66666 0,-61.67179 54.472,-111.66665 121.6667,-111.66665 67.1946,0 121.6666,49.99486 121.6666,111.66665 z m -3.3333,71.66669 c 0,66.27417 -52.2335,120 -116.6667,120 -64.4332,0 -116.6667,-53.72583 -116.6667,-120 0,-66.27417 52.2335,-120 116.6667,-120 64.4332,0 116.6667,53.72583 116.6667,120 z m -63.3334,80 c 0,69.95615 -88.7968,126.66675 -198.3333,126.66675 -109.5365,0 -198.3333,-56.7106 -198.3333,-126.66675 0,-69.95606 88.7968,-126.66666 198.3333,-126.66666 109.5365,0 198.3333,56.7106 198.3333,126.66666 z m -96.6666,-208.33331 c 0,83.76319 -70.1421,151.66667 -156.6667,151.66667 -86.5246,0 -156.6667,-67.90348 -156.6667,-151.66667 0,-83.76319 70.1421,-151.66667 156.6667,-151.66667 86.5246,0 156.6667,67.90348 156.6667,151.66667 z m -130,236.66662 c 0,67.19464 -72.3807,121.66674 -161.6667,121.66674 -89.286,0 -161.6667,-54.4721 -161.6667,-121.66674 0,-67.19464 72.3807,-121.66665 161.6667,-121.66665 89.286,0 161.6667,54.47201 161.6667,121.66665 z m -80,-180 c 0,72.7175 -64.1725,131.66667 -143.3333,131.66667 -79.1608,0 -143.3334,-58.94917 -143.3334,-131.66667 0,-72.71749 64.1726,-131.66667 143.3334,-131.66667 79.1608,0 143.3333,58.94918 143.3333,131.66667 z m -146.6667,71.66669 c 0,84.68366 -70.8883,153.33345 -158.3334,153.33345 -87.4451,0 -158.3333,-68.64979 -158.3333,-153.33345 0,-84.68366 70.8882,-153.33333 158.3333,-153.33333 87.4451,0 158.3334,68.64967 158.3334,153.33333 z"
       inkscape:connector-curvature="0" />
    <path
       id="path3835"
       style="fill:#ffffff;fill-opacity:1;stroke:#000000;stroke-width:0;stroke-miterlimit:4;stroke-opacity:1"
       d="m 993.3334,1051.6666 c 0,59.8309 -65.6649,108.3334 -146.66671,108.3334 -81.00177,0 -146.66667,-48.5025 -146.66667,-108.3334 0,-59.8308 65.6649,-108.3333 146.66667,-108.3333 81.00181,0 146.66671,48.5025 146.66671,108.3333 z M 766.66669,1005 c 0,61.6718 -49.24868,111.6667 -110,111.6667 -60.75133,0 -110,-49.9949 -110,-111.6667 0,-61.6718 49.24867,-111.6667 110,-111.6667 60.75132,0 110,49.9949 110,111.6667 z M 600,1026.6666 c 0,58.9104 -60.44156,106.6667 -135,106.6667 -74.55844,0 -135,-47.7563 -135,-106.6667 C 330,967.7563 390.44156,920 465,920 c 74.55844,0 135,47.7563 135,106.6666 z m -226.66667,20 c 0,64.4332 -64.17252,116.6667 -143.33333,116.6667 -79.16081,0 -143.33333,-52.2335 -143.33333,-116.6667 C 86.66667,982.2334 150.83919,930 230,930 c 79.16081,0 143.33333,52.2334 143.33333,116.6666 z M 226.66667,938.3334 c 0,57.9899 -63.42633,105 -141.66667,105 -78.24034,0 -141.666672,-47.0101 -141.666672,-105 0,-57.9899 63.426332,-105 141.666672,-105 78.24034,0 141.66667,47.0101 141.66667,105 z m 156.66666,-56.6668 c 0,74.5585 -68.64967,135 -153.33333,135 -84.68366,0 -153.33333,-60.4415 -153.33333,-135 0,-74.5584 68.64967,-134.99997 153.33333,-134.99997 84.68366,0 153.33333,60.44157 153.33333,134.99997 z M 1106.6667,915 c 0,74.5584 -59.6954,135 -133.3333,135 -73.638,0 -133.33335,-60.4416 -133.33335,-135 0,-74.5584 59.69535,-135 133.33335,-135 73.6379,0 133.3333,60.4416 133.3333,135 z M 950,868.3334 C 950,963.1423 870.90362,1040 773.33331,1040 675.763,1040 596.66664,963.1423 596.66664,868.3334 c 0,-94.8089 79.09636,-171.6667 176.66667,-171.6667 C 870.90362,696.6667 950,773.5245 950,868.3334 z M 700,821.6666 c 0,113.2184 -107.45166,205 -240,205 -132.54834,0 -240,-91.7816 -240,-205 0,-113.21835 107.45166,-204.99997 240,-204.99997 132.54834,0 240,91.78162 240,204.99997 z"
       inkscape:connector-curvature="0" />
  </g>
</svg>
