<?xml version="1.0" encoding="utf-8"?>
<!DOCTYPE svg PUBLIC "-//W3C//DTD SVG 1.1//EN" "http://www.w3.org/Graphics/SVG/1.1/DTD/svg11.dtd">
<svg xmlns="http://www.w3.org/2000/svg" xmlns:xlink="http://www.w3.org/1999/xlink" version="1.1" baseProfile="full" width="480" height="480" viewBox="0 0 480.00 480.00" enable-background="new 0 0 480.00 480.00" xml:space="preserve">
	<path fill="#119900" fill-opacity="1" stroke-width="0.32" stroke-linejoin="round" d="M 8.13802e-005,0L 480,0L 480,480L 8.13802e-005,480L 8.13802e-005,0 Z M 112,160C 67.8171,160 32.0001,195.817 32.0001,240C 32.0001,284.183 67.8173,320 112,320C 126.573,320 140.236,316.103 152.004,309.295C 172.514,335.304 204.307,352 240,352C 275.693,352 307.486,335.304 327.996,309.295C 339.764,316.103 353.427,320 368,320C 412.183,320 448,284.183 448,240C 448,195.817 412.183,160 368,160C 353.427,160 339.764,163.897 327.996,170.705C 307.486,144.696 275.693,128 240,128C 204.307,128 172.513,144.696 152.004,170.705C 140.236,163.897 126.573,160 112,160 Z M 176,192C 184.836,192 192,199.164 192,208C 192,216.837 184.836,224 176,224C 167.163,224 160,216.837 160,208C 160,199.164 167.164,192 176,192 Z M 304,192C 312.836,192 320,199.164 320,208C 320,216.837 312.836,224 304,224C 295.163,224 288,216.837 288,208C 288,199.164 295.163,192 304,192 Z M 170.667,266.667C 181.333,266.667 202.667,277.333 218.667,282.667C 234.667,288 245.333,288 261.333,282.667C 277.333,277.333 298.667,266.667 309.333,266.667C 320,266.667 320,277.333 309.333,288C 298.667,298.667 277.333,309.333 261.333,314.667C 245.333,320 234.667,320 218.667,314.667C 202.667,309.333 181.333,298.667 170.667,288C 160,277.333 160,266.667 170.667,266.667 Z "/>
</svg>
